<?xml version="1.0" ?><svg style="enable-background:new 0 0 48 48;" version="1.1" viewBox="0 0 48 48" xml:space="preserve" xmlns="http://www.w3.org/2000/svg" xmlns:xlink="http://www.w3.org/1999/xlink"><g id="Icons"><g><path d="M23.85191,19.84435c-1.74536-4.83545,6.11027-9.43258,9.34704-5.0194    c0,0,1.25468-0.04503,3.54444-1.27797c0,0-0.54602,1.74347-2.30737,2.89729c0,0,1.33863-0.00867,2.95907-0.73083    c0,0-1.02158,1.65567-2.6068,2.76532c0,0-0.03523,2.48351-0.40511,4.0335c-0.36988,1.54999-1.60283,5.8653-5.30167,8.89483    s-8.2079,3.69884-10.76186,3.5227c-2.55396-0.17613-5.68917-1.14488-7.71472-2.39544c0,0,4.63236,0.49318,8.04938-2.32498    c0,0-3.45225,0.15852-5.09031-3.82214c0,0,1.18011,0.21136,2.44828-0.14091c0,0-4.35054-0.79261-4.40338-5.47781    c0,0,1.4267,0.70454,2.48351,0.63409c0,0-4.15679-3.17043-1.62044-7.27439C12.47195,14.12822,16.63199,19.64232,23.85191,19.84435    z" style="fill:#4AA0EC;"/><path d="    M23.85191,19.84435c-1.74536-4.83545,6.11027-9.43258,9.34704-5.0194c0,0,1.25468-0.04503,3.54444-1.27797    c0,0-0.54602,1.74347-2.30737,2.89729c0,0,1.33863-0.00867,2.95907-0.73083c0,0-1.02158,1.65567-2.6068,2.76532    c0,0-0.03523,2.48351-0.40511,4.0335c-0.36988,1.54999-1.60283,5.8653-5.30167,8.89483s-8.2079,3.69884-10.76186,3.5227    c-2.55396-0.17613-5.68917-1.14488-7.71472-2.39544c0,0,4.63236,0.49318,8.04938-2.32498c0,0-3.45225,0.15852-5.09031-3.82214    c0,0,1.18011,0.21136,2.44828-0.14091c0,0-4.35054-0.79261-4.40338-5.47781c0,0,1.4267,0.70454,2.48351,0.63409    c0,0-4.0771-3.10965-1.69188-7.15605c0.03242-0.055,0.11354-0.06387,0.15376-0.01428    C13.17046,14.99186,17.22049,19.65879,23.85191,19.84435z" style="fill:none;stroke:#303030;stroke-width:0.7;stroke-linecap:round;stroke-linejoin:round;stroke-miterlimit:10;"/><path d="    M29.07858,28.77783c-0.2166,0.25449-0.45053,0.50574-0.70302,0.74989" style="fill:none;stroke:#303030;stroke-width:0.7;stroke-linecap:round;stroke-linejoin:round;stroke-miterlimit:10;"/><path d="    M31.96744,23.83672c-0.21736,0.69777-0.74022,2.18259-1.81396,3.68586" style="fill:none;stroke:#303030;stroke-width:0.7;stroke-linecap:round;stroke-linejoin:round;stroke-miterlimit:10;"/></g></g></svg>